<svg xmlns="http://www.w3.org/2000/svg" viewBox="0 0 103.03 81.3"><defs><style>.cls-1,.cls-4{fill:#98bf13;}.cls-1,.cls-2{fill-rule:evenodd;}.cls-2,.cls-3{fill:#001881;}</style></defs><title>logo_servicad_vertical</title><g id="Capa_2" data-name="Capa 2"><g id="logoVertical"><path class="cls-1" d="M41.47,44.08a38,38,0,0,0,15.79,4.37c4.74.23,9-.41,13-2.76,6.76-2.24,8-6.43,3.81-12.48A35,35,0,0,0,70.51,29Q79.57,41.54,69.87,44q-6.84,7.17-28.4,0Zm10-27.66C58.6,20.94,62.81,24.72,65,27.67c1.92,2.59,2.34,4.52.59,5.94,3.86,9.89-1,13.38-15.49,10.24,11.4,1.59,16,.1,15.62-5.4-1,4.09-3.16,5.48-8.34,5.11,6.27-1.17,8.36-3.78,7.17-7.9-1.11-3.82-5-9-12.49-15.31q6.27,2.26-.59-3.93Zm6.8,9.37q3.75.75-.45-4.69c1.79,2,3.36,3.46,4.27,4.77,1.32,1.9,1.33,2.9,1,3.29-.45.58-2-.34-4.85-3.37ZM44.32,43.62c16.46,4.4,24.51,2,24.1-6.26,3.1-1.67,1.73-5.59-4-12.62,5.05,4.63,8,8.85,7.88,11.91-.05,1.65-1.28,2.69-2.85,3.89q-2.82,11.18-25.09,3.08Z"/><path class="cls-2" d="M51.42,32.07c-7.13-4.52-11.35-8.3-13.52-11.24-1.93-2.6-2.34-4.52-.6-5.94C33.44,5,38.31,1.51,52.8,4.64c-11.4-1.58-16-.1-15.63,5.4,1-4.08,3.16-5.47,8.34-5.11-6.27,1.18-8.36,3.78-7.16,7.9,1.1,3.82,5,9,12.49,15.32q-6.29-2.28.58,3.92Zm-6.8-9.36q-3.73-.75.45,4.68c-1.79-2-3.36-3.46-4.27-4.77-1.31-1.89-1.33-2.89-1-3.28.44-.58,2,.34,4.84,3.37Zm16.8-18.3A38.42,38.42,0,0,0,45.62,0c-4.73-.23-9,.41-13,2.76-6.77,2.25-8,6.43-3.82,12.49a36.79,36.79,0,0,0,3.55,4.26Q23.31,7,33,4.45q6.87-7.17,28.42,0Zm-2.86.46c-16.46-4.4-24.5-2-24.1,6.26-3.09,1.67-1.73,5.59,4,12.62-5-4.62-8-8.85-7.88-11.9.05-1.66,1.29-2.7,2.85-3.89Q36.29-3.22,58.56,4.87Z"/><g id="textSERVICAD"><path class="cls-3" d="M7.09,65.19c0-.47-.19-.65-.66-.84L2.27,62.77C.85,62.23.19,61.57.19,60v-1.3c0-1.95.94-2.88,2.93-2.88H6.8c2,0,2.93.93,2.93,2.88V59.9a.44.44,0,0,1-.47.46H7.37a.44.44,0,0,1-.47-.46v-.66a.88.88,0,0,0-1-.92H4a.88.88,0,0,0-1,.92v.56c0,.47.19.65.66.84l4.16,1.58c1.42.53,2.08,1.2,2.08,2.78v1.3c0,2-.94,2.88-2.93,2.88H2.93c-2,0-2.93-.93-2.93-2.88V65.09a.44.44,0,0,1,.47-.46H2.36a.44.44,0,0,1,.47.46v.65a.89.89,0,0,0,.95.93H6.14a.89.89,0,0,0,1-.93Z"/><path class="cls-3" d="M17.29,66.49h6.05a.44.44,0,0,1,.47.46v1.58a.44.44,0,0,1-.47.46H14.93a.44.44,0,0,1-.47-.46V56.46a.44.44,0,0,1,.47-.46h8.22a.43.43,0,0,1,.47.46V58a.43.43,0,0,1-.47.46H17.29v2.6h4.44a.45.45,0,0,1,.48.47v1.57a.45.45,0,0,1-.48.47H17.29Z"/><path class="cls-3" d="M36.1,64.72,38,68.53a.31.31,0,0,1-.29.46h-2a.68.68,0,0,1-.7-.46l-1.7-3.62H30.81v3.62a.44.44,0,0,1-.48.46H28.44a.44.44,0,0,1-.47-.46V56.46a.44.44,0,0,1,.47-.46H35c2,0,2.93.93,2.93,2.87V62C37.89,64.54,36.1,64.72,36.1,64.72ZM30.81,58.5v3.9h3.31a.88.88,0,0,0,.94-.93v-2a.88.88,0,0,0-.94-.93Z"/><path class="cls-3" d="M46.78,64.07H47l2.45-7.61a.62.62,0,0,1,.66-.46h2.08c.23,0,.38.18.29.46L48.19,68.53a.62.62,0,0,1-.66.46H46.21a.62.62,0,0,1-.66-.46L41.3,56.46c-.1-.28,0-.46.28-.46h2.08a.62.62,0,0,1,.66.46Z"/><path class="cls-3" d="M59,68.53a.44.44,0,0,1-.48.46H56.64a.44.44,0,0,1-.47-.46V56.46a.44.44,0,0,1,.47-.46h1.89a.44.44,0,0,1,.48.46Z"/><path class="cls-3" d="M74.22,59.9a.44.44,0,0,1-.47.46H71.86a.44.44,0,0,1-.47-.46v-.66a.88.88,0,0,0-1-.92H67.7a.88.88,0,0,0-1,.92v6.5a.89.89,0,0,0,1,.93h2.74a.89.89,0,0,0,1-.93v-.65a.44.44,0,0,1,.47-.46h1.89a.44.44,0,0,1,.47.46V66.3c0,2-1,2.88-2.93,2.88H66.85c-2,0-2.93-.93-2.93-2.88V58.69c0-1.95,1-2.88,2.93-2.88h4.44c2,0,2.93.93,2.93,2.88Z"/><path class="cls-3" d="M81.16,66.3l-.66,2.23a.62.62,0,0,1-.67.46H77.76c-.25,0-.38-.18-.29-.46l4-12.07A.62.62,0,0,1,82.1,56h2.27a.62.62,0,0,1,.66.46l4,12.07c.1.28-.06.46-.28.46H86.64a.62.62,0,0,1-.66-.46l-.67-2.23Zm3.4-2.51-1.23-4.08h-.19l-1.23,4.08Z"/><path class="cls-3" d="M100.1,56c2,0,2.93.93,2.93,2.87v7.24c0,2-.94,2.88-2.93,2.88H93.2a.44.44,0,0,1-.47-.46V56.46A.44.44,0,0,1,93.2,56ZM95.56,66.49h3.69a.88.88,0,0,0,.94-.93V59.43a.88.88,0,0,0-.94-.93H95.56Z"/></g><g id="textEXPRESS"><path class="cls-4" d="M26.41,80.12a.16.16,0,0,1,.18.18V81c0,.12-.06.18-.16.18H20.27a.17.17,0,0,1-.19-.18V73.08c0-.13.07-.18.19-.18h6c.12,0,.18,0,.18.17v.71c0,.12-.06.18-.16.18H21.23v2.49h4a.16.16,0,0,1,.18.18v.71a.15.15,0,0,1-.17.17h-4v2.61Z"/><path class="cls-4" d="M33.87,73.07a.34.34,0,0,1,.3-.17h1c.12,0,.2.08.12.17L32.66,76.8,35.55,81c.08.11,0,.18-.12.18h-1a.35.35,0,0,1-.3-.18l-2.23-3.32L29.71,81a.37.37,0,0,1-.3.18h-1c-.12,0-.19-.07-.12-.18l2.89-4.21-2.59-3.73c-.07-.09,0-.17.12-.17h1a.35.35,0,0,1,.3.17l1.93,2.85Z"/><path class="cls-4" d="M39.15,78.58V81a.16.16,0,0,1-.18.18h-.79A.16.16,0,0,1,38,81V73.07c0-.12.06-.17.18-.17h4.41c1.44,0,2.17.71,2.17,2.07v1.54c0,1.36-.73,2.07-2.17,2.07Zm3.44-1.07a.91.91,0,0,0,1-1V75a.92.92,0,0,0-1-1H39.15v3.55Z"/><path class="cls-4" d="M54.58,81c.06.12,0,.18-.12.18h-.84a.28.28,0,0,1-.3-.18l-1.45-2.67H48.92V81a.16.16,0,0,1-.18.18H48a.16.16,0,0,1-.18-.18V73.07c0-.12.06-.17.18-.17h4.28c1.45,0,2.17.71,2.17,2.07v1.3a1.76,1.76,0,0,1-1.38,2Zm-2.35-3.73a.92.92,0,0,0,1-1V75a.92.92,0,0,0-1-1H48.92v3.32Z"/><path class="cls-4" d="M64,80.12a.16.16,0,0,1,.18.18V81c0,.12-.06.18-.17.18H57.8a.16.16,0,0,1-.18-.18V73.08c0-.13.06-.18.18-.18h6c.12,0,.18,0,.18.17v.71c0,.12-.06.18-.17.18H58.77v2.49h4a.16.16,0,0,1,.18.18v.71a.15.15,0,0,1-.17.17h-4v2.61Z"/><path class="cls-4" d="M71.37,77.93,67.75,76.8a1.52,1.52,0,0,1-1.2-1.54v-.41c0-1.36.72-2.07,2.17-2.07h2.17c1.44,0,2.17.71,2.17,2.07v.47c0,.12-.06.18-.19.18h-.78a.16.16,0,0,1-.18-.18v-.47a.92.92,0,0,0-1-1H68.72a.92.92,0,0,0-1,1v.3c0,.41.24.64.66.77L72,77a1.53,1.53,0,0,1,1.21,1.54v.65c0,1.36-.73,2.07-2.17,2.07H68.6c-1.45,0-2.17-.71-2.17-2.07v-.47a.16.16,0,0,1,.18-.18h.78a.16.16,0,0,1,.18.18v.47a.92.92,0,0,0,1,1H71a.92.92,0,0,0,1-1V78.7C72,78.28,71.79,78.06,71.37,77.93Z"/><path class="cls-4" d="M80.9,77.93,77.28,76.8a1.53,1.53,0,0,1-1.21-1.54v-.41c0-1.36.73-2.07,2.17-2.07h2.17c1.45,0,2.17.71,2.17,2.07v.47a.16.16,0,0,1-.18.18h-.78a.16.16,0,0,1-.18-.18v-.47a.92.92,0,0,0-1-1H78.24a.92.92,0,0,0-1,1v.3c0,.41.24.64.66.77L81.5,77a1.53,1.53,0,0,1,1.2,1.54v.65c0,1.36-.72,2.07-2.17,2.07H78.12c-1.44,0-2.17-.71-2.17-2.07v-.47a.16.16,0,0,1,.18-.18h.79a.16.16,0,0,1,.18.18v.47a.92.92,0,0,0,1,1h2.41a.92.92,0,0,0,1-1V78.7C81.56,78.28,81.32,78.06,80.9,77.93Z"/></g></g></g></svg>