<svg xmlns="http://www.w3.org/2000/svg" viewBox="0 0 197.88 62.13"><defs><style>.cls-1,.cls-4{fill:#001881;}.cls-2,.cls-3{fill:#98bf13;}.cls-3,.cls-4{fill-rule:evenodd;}</style></defs><title>Reculogo_servicad_horizontal</title><g id="Capa_2" data-name="Capa 2"><g id="notmal"><path class="cls-1" d="M74.5,29.11c0-.6-.25-.84-.85-1.08L68.3,26c-1.82-.69-2.67-1.55-2.67-3.58V20.75c0-2.51,1.21-3.7,3.76-3.7h4.74c2.55,0,3.77,1.19,3.77,3.7V22.3a.57.57,0,0,1-.61.6H74.86a.57.57,0,0,1-.61-.6v-.83A1.14,1.14,0,0,0,73,20.27H70.49a1.14,1.14,0,0,0-1.22,1.2v.71c0,.6.24.84.85,1.08l5.35,2c1.82.69,2.67,1.55,2.67,3.58v1.67c0,2.51-1.21,3.7-3.76,3.7H69.15c-2.55,0-3.77-1.19-3.77-3.7V29a.57.57,0,0,1,.61-.6h2.43A.57.57,0,0,1,69,29v.83A1.14,1.14,0,0,0,70.24,31h3a1.14,1.14,0,0,0,1.22-1.2Z"/><path class="cls-1" d="M87.62,30.78H95.4a.57.57,0,0,1,.61.59v2a.57.57,0,0,1-.61.6H84.59a.57.57,0,0,1-.61-.6V17.88a.57.57,0,0,1,.61-.59H95.16a.56.56,0,0,1,.6.59v2a.57.57,0,0,1-.6.6H87.62v3.34h5.71a.57.57,0,0,1,.61.6v2a.57.57,0,0,1-.61.6H87.62Z"/><path class="cls-1" d="M111.81,28.51l2.43,4.89a.41.41,0,0,1-.37.6h-2.62a.86.86,0,0,1-.9-.6l-2.19-4.65H105V33.4a.57.57,0,0,1-.61.6H102a.57.57,0,0,1-.6-.6V17.88a.56.56,0,0,1,.6-.59h8.39c2.55,0,3.76,1.19,3.76,3.7v4.06C114.11,28.27,111.81,28.51,111.81,28.51Zm-6.81-8v5h4.26a1.13,1.13,0,0,0,1.21-1.19V21.7a1.14,1.14,0,0,0-1.21-1.19Z"/><path class="cls-1" d="M125.54,27.67h.24l3.16-9.79a.8.8,0,0,1,.85-.59h2.68c.29,0,.48.24.36.59L127.36,33.4a.8.8,0,0,1-.85.6h-1.7a.8.8,0,0,1-.85-.6l-5.47-15.52c-.12-.35.05-.59.37-.59h2.67a.81.81,0,0,1,.85.59Z"/><path class="cls-1" d="M141.27,33.4a.57.57,0,0,1-.61.6h-2.43a.57.57,0,0,1-.61-.6V17.88a.57.57,0,0,1,.61-.59h2.43a.57.57,0,0,1,.61.59Z"/><path class="cls-1" d="M160.83,22.3a.57.57,0,0,1-.61.6h-2.43a.57.57,0,0,1-.6-.6v-.83a1.14,1.14,0,0,0-1.22-1.2h-3.52a1.14,1.14,0,0,0-1.22,1.2v8.35a1.14,1.14,0,0,0,1.22,1.2H156a1.14,1.14,0,0,0,1.22-1.2V29a.57.57,0,0,1,.6-.6h2.43a.57.57,0,0,1,.61.6v1.55c0,2.51-1.21,3.7-3.77,3.7h-5.71c-2.55,0-3.76-1.19-3.76-3.7V20.75c0-2.51,1.21-3.7,3.76-3.7h5.71c2.56,0,3.77,1.19,3.77,3.7Z"/><path class="cls-1" d="M169.75,30.54l-.85,2.86a.79.79,0,0,1-.85.6h-2.67c-.32,0-.49-.24-.37-.6l5.11-15.52a.81.81,0,0,1,.85-.59h2.91a.81.81,0,0,1,.85.59l5.11,15.52c.12.36-.07.6-.36.6H176.8a.8.8,0,0,1-.85-.6l-.85-2.86Zm4.38-3.22-1.58-5.26h-.25l-1.58,5.26Z"/><path class="cls-1" d="M194.11,17.29c2.56,0,3.77,1.19,3.77,3.7V30.3c0,2.51-1.21,3.7-3.77,3.7h-8.87a.57.57,0,0,1-.61-.6V17.88a.57.57,0,0,1,.61-.59Zm-5.83,13.49H193a1.14,1.14,0,0,0,1.22-1.2V21.7A1.14,1.14,0,0,0,193,20.51h-4.74Z"/><path class="cls-2" d="M99.66,48.22a.21.21,0,0,1,.23.23v.91a.2.2,0,0,1-.21.23H91.79a.21.21,0,0,1-.23-.23V39.22c0-.17.08-.24.23-.24h7.72c.15,0,.23.07.23.22v.91a.2.2,0,0,1-.22.23H93v3.18h5.09a.21.21,0,0,1,.23.23v.91a.2.2,0,0,1-.22.23H93v3.33Z"/><path class="cls-2" d="M109.2,39.2a.46.46,0,0,1,.38-.22h1.24c.15,0,.24.1.15.22L107.65,44l3.71,5.38c.09.14,0,.23-.16.23H110a.47.47,0,0,1-.39-.23l-2.85-4.25-2.86,4.25a.45.45,0,0,1-.38.23h-1.24c-.15,0-.24-.09-.15-.23L105.8,44l-3.31-4.78c-.1-.12,0-.22.15-.22h1.23a.46.46,0,0,1,.39.22l2.47,3.64Z"/><path class="cls-2" d="M116,46.25v3.11a.21.21,0,0,1-.23.23h-1a.21.21,0,0,1-.23-.23V39.2c0-.15.08-.22.23-.22h5.64c1.85,0,2.77.9,2.77,2.65v2c0,1.74-.92,2.65-2.77,2.65Zm4.4-1.36a1.18,1.18,0,0,0,1.31-1.29v-2a1.18,1.18,0,0,0-1.31-1.29H116v4.55Z"/><path class="cls-2" d="M135.71,49.36c.08.15,0,.23-.15.23h-1.09a.36.36,0,0,1-.38-.23L132.24,46h-3.78v3.41a.21.21,0,0,1-.23.23h-1a.21.21,0,0,1-.23-.23V39.2c0-.15.08-.22.23-.22h5.48c1.85,0,2.78.9,2.78,2.65V43.3a2.25,2.25,0,0,1-1.78,2.5Zm-3-4.78A1.16,1.16,0,0,0,134,43.3V41.63a1.17,1.17,0,0,0-1.31-1.29h-4.24v4.24Z"/><path class="cls-2" d="M147.7,48.22a.21.21,0,0,1,.23.23v.91a.2.2,0,0,1-.21.23h-7.89a.21.21,0,0,1-.23-.23V39.22c0-.17.08-.24.23-.24h7.72c.15,0,.23.07.23.22v.91a.2.2,0,0,1-.22.23h-6.49v3.18h5.09a.21.21,0,0,1,.23.23v.91a.2.2,0,0,1-.22.23h-5.1v3.33Z"/><path class="cls-2" d="M157.19,45.42,152.56,44A2,2,0,0,1,151,42v-.53c0-1.75.93-2.66,2.78-2.66h2.77c1.85,0,2.78.91,2.78,2.66v.6a.21.21,0,0,1-.23.23h-1a.2.2,0,0,1-.23-.23v-.6a1.17,1.17,0,0,0-1.32-1.29H153.8a1.17,1.17,0,0,0-1.31,1.29v.38c0,.53.3.81.84,1L158,44.28a2,2,0,0,1,1.55,2v.84c0,1.74-.93,2.65-2.78,2.65h-3.09c-1.85,0-2.78-.91-2.78-2.65v-.61a.21.21,0,0,1,.24-.23h1a.21.21,0,0,1,.23.23v.61a1.16,1.16,0,0,0,1.31,1.28h3.09A1.16,1.16,0,0,0,158,47.09V46.4C158,45.87,157.73,45.58,157.19,45.42Z"/><path class="cls-2" d="M169.38,45.42,164.75,44a2,2,0,0,1-1.54-2v-.53c0-1.75.93-2.66,2.78-2.66h2.78c1.85,0,2.77.91,2.77,2.66v.6a.2.2,0,0,1-.23.23h-1a.2.2,0,0,1-.23-.23v-.6a1.17,1.17,0,0,0-1.31-1.29H166a1.17,1.17,0,0,0-1.31,1.29v.38c0,.53.31.81.85,1l4.62,1.44a2,2,0,0,1,1.55,2v.84c0,1.74-.93,2.65-2.78,2.65h-3.09c-1.85,0-2.77-.91-2.77-2.65v-.61a.2.2,0,0,1,.23-.23h1a.21.21,0,0,1,.23.23v.61a1.17,1.17,0,0,0,1.31,1.28h3.09a1.16,1.16,0,0,0,1.31-1.28V46.4C170.23,45.87,169.92,45.58,169.38,45.42Z"/><path class="cls-3" d="M19.31,56.48a48.63,48.63,0,0,0,20.23,5.59c6.07.31,11.56-.51,16.64-3.52,8.67-2.88,10.27-8.24,4.89-16a46.51,46.51,0,0,0-4.55-5.46q11.61,16.13-.82,19.33-8.78,9.21-36.39.06ZM32.11,21c9.15,5.79,14.54,10.63,17.33,14.41,2.46,3.32,3,5.79.76,7.61,4.94,12.68-1.29,17.14-19.85,13.13,14.61,2,20.53.12,20-6.92-1.24,5.23-4,7-10.69,6.54,8-1.5,10.71-4.84,9.19-10.12-1.42-4.9-6.37-11.47-16-19.62q8,2.91-.75-5Zm8.72,12q4.79,1-.58-6c2.29,2.56,4.31,4.43,5.47,6.11,1.69,2.43,1.7,3.71,1.31,4.21-.56.74-2.57-.44-6.2-4.32ZM23,55.89c21.08,5.64,31.39,2.6,30.87-8,4-2.14,2.22-7.16-5.18-16.17C55.14,37.63,58.88,43,58.76,47c-.06,2.12-1.65,3.45-3.65,5Q51.5,66.25,23,55.89Z"/><path class="cls-4" d="M32.06,41.09c-9.14-5.79-14.54-10.63-17.33-14.4-2.46-3.33-3-5.8-.76-7.62C9,6.4,15.26,1.93,33.82,6c-14.6-2-20.53-.13-20,6.91,1.24-5.22,4.05-7,10.69-6.54-8,1.51-10.71,4.84-9.18,10.12,1.41,4.9,6.36,11.47,16,19.63q-8-2.93.75,5Zm-8.71-12q-4.8-1,.57,6c-2.29-2.56-4.31-4.43-5.46-6.1-1.69-2.43-1.71-3.71-1.32-4.22.57-.73,2.58.44,6.21,4.33ZM44.87,5.65A49,49,0,0,0,24.63.06C18.56-.24,13.07.58,8,3.59c-8.66,2.88-10.26,8.24-4.89,16a46.5,46.5,0,0,0,4.56,5.46Q-4,8.91,8.46,5.71q8.79-9.19,36.41-.06Zm-3.66.59c-21.09-5.63-31.4-2.59-30.88,8-4,2.14-2.22,7.16,5.18,16.17C9,24.51,5.3,19.09,5.41,15.18c.06-2.12,1.65-3.46,3.65-5Q12.68-4.12,41.21,6.24Z"/></g></g></svg>